{"title":"No Escape (1994) Ray Liotta + Lance Henriksen (MULTISUBS)","uid":4429640,"size":731102829,"categoryP":"video","categoryS":"movies","magnet":"?xt=urn:btih:24b3d1019f410033e397a328e1afefd1303b9bb8&amp;dn=No+Escape+%281994%29+Ray+Liotta+%2B+Lance+Henriksen+%28MULTISUBS%29&amp;tr=udp%3A%2F%2Ftracker.openbittorrent.com%3A80&amp;tr=udp%3A%2F%2Fopen.demonii.com%3A1337&amp;tr=udp%3A%2F%2Ftracker.coppersurfer.tk%3A6969&amp;tr=udp%3A%2F%2Fexodus.desync.com%3A6969","seeders":3,"leechers":0,"uploader":"Kuthumi","files":-1,"time":1223219145,"description":"aka \nNo Escape from Absolom (1994)\nEscape from Absolom (1994)\nFlykten frÃƒÂ¥n Absolom (1994)\n &lt;a href=&quot;\nhttp://www.imdb.com/title/tt0110678/&quot; rel=&quot;nofollow&quot; target=&quot;_NEW&quot;&gt;\nhttp://www.imdb.com/title/tt0110678/&lt;/a&gt;\n\nSwedish subtitles in idx/sub format.\nSubs in srt format:\nDanish, English, Finnish, Icelandic, Norwegian, Swedish\n\nClassic science fiction action about the prisoner&amp;#039;s island where convicts have divided into two camps of the good guys and the bad guys.\n\nI have uploaded this once before, and thought it deserves a quality rip with all available subs from my DVD.\n\nDVD-rip 2-pass Widescreen 704x384, very good stereo Ac3.\nBurn tested, runs well in both my standalone DivX players.\n\nFormat/Info                      : Audio Video Interleave\nFile size                        : 697 MiB\nDuration                         : 1h 53mn\nOveral bit rate                  : 857 Kbps\n\nVideo\nFormat                           : MPEG-4 Visual\nFormat profile                   : Streaming Video@L1\nFormat settings, BVOP            : Yes\nFormat settings, QPel            : No\nFormat settings, GMC             : No warppoints\nFormat settings, Matrix          : Default\nMuxing mode                      : Packet Bitstream\nCodec ID                         : XVID\nCodec ID/Hint                    : XviD\nDuration                         : 1h 53mn\nBit rate                         : 720 Kbps\nWidth                            : 704 pixels\nHeight                           : 384 pixels\nDisplay aspect ratio             : 16/9\nFrame rate                       : 25.000 fps\nResolution                       : 8 bits\nColorimetry                      : 4:2:0\nScan type                        : Progressive\nBits/(Pixel*Frame)               : 0.106\nStream size                      : 585 MiB\nWriting library                  : XviD 1.2.0.dev47 (UTC 2006-11-01)\n\nAudio\nFormat                           : MPEG Audio\nFormat version                   : Version 1\nFormat profile                   : Layer 3\nCodec ID                         : 55\nCodec ID/Hint                    : MP3\nDuration                         : 1h 53mn\nBit rate mode                    : Constant\nBit rate                         : 128 Kbps\nMinimum bit rate                 : 128 Kbps\nChannel(s)                       : 2 channels\nSampling rate                    : 48.0 KHz\nResolution                       : 16 bits\nStream size                      : 104 MiB\nWriting library                  : LAME3.97 \nEncoding settings                : CBR\n\nSource: PAL retail (note that PAL/NTSC will give no problems for avi files)","torrent":{"xt":"urn:btih:24b3d1019f410033e397a328e1afefd1303b9bb8","amp;dn":"No+Escape+%281994%29+Ray+Liotta+%2B+Lance+Henriksen+%28MULTISUBS%29","amp;tr":["udp%3A%2F%2Ftracker.openbittorrent.com%3A80","udp%3A%2F%2Fopen.demonii.com%3A1337","udp%3A%2F%2Ftracker.coppersurfer.tk%3A6969","udp%3A%2F%2Fexodus.desync.com%3A6969"],"infoHash":"24b3d1019f410033e397a328e1afefd1303b9bb8","infoHashBuffer":{"type":"Buffer","data":[36,179,209,1,159,65,0,51,227,151,163,40,225,175,239,209,48,59,155,184]},"announce":[],"urlList":[]}}